# xmcd
#
# Track frame offsets:
#	150
#	16004
#	45173
#
# Disc length: 896 seconds
#
# Revision: 9
# Processed by: cddbd v1.5.2PL0 Copyright (c) Steve Scherf et al.
# Submitted via: audiograbber 1.83.01
#
DISCID=10037e03
DTITLE=Dune - Rainbow To The Stars
DYEAR=1996
DGENRE=Rave
TTITLE0=Rainbow To The Stars (Video Mix)
TTITLE1=Rainbow To The Stars (Jimmy Miller Live Mix)
TTITLE2=Rainbow To The Stars (12'' Mix)
EXTD=
EXTT0=
EXTT1=
EXTT2=
PLAYORDER=
